<?xml version="1.0" standalone="no"?>
<!DOCTYPE svg PUBLIC "-//W3C//DTD SVG 20010904//EN"
 "http://www.w3.org/TR/2001/REC-SVG-20010904/DTD/svg10.dtd">
<svg version="1.0" xmlns="http://www.w3.org/2000/svg"
 width="420.000000pt" height="420.000000pt" viewBox="0 0 420.000000 420.000000"
 preserveAspectRatio="xMidYMid meet">
<metadata>
Created by potrace 1.14, written by Peter Selinger 2001-2017
</metadata>
<g transform="translate(0.000000,420.000000) scale(0.100000,-0.100000)"
fill="#000000" stroke="none">
<path d="M2215 4174 c-49 -7 -130 -23 -180 -33 -49 -11 -124 -23 -165 -26
-167 -14 -369 -80 -540 -176 -36 -20 -76 -40 -90 -44 -55 -17 -168 -95 -240
-165 -57 -56 -127 -166 -152 -241 -3 -8 -26 -21 -49 -28 -24 -7 -56 -22 -71
-32 -14 -11 -30 -19 -36 -19 -31 0 -181 -153 -182 -187 -1 -4 -9 -26 -20 -48
-11 -22 -19 -49 -20 -60 0 -12 -5 -26 -11 -32 -19 -19 -28 -200 -18 -347 5
-77 13 -144 16 -149 3 -5 12 -40 18 -76 40 -210 53 -269 58 -278 6 -9 12 -40
42 -203 7 -41 21 -113 29 -160 16 -86 40 -176 54 -196 4 -6 24 -14 44 -17 29
-4 40 -2 47 10 20 36 40 -29 56 -182 26 -248 54 -428 74 -486 59 -173 171
-339 342 -506 98 -96 134 -126 269 -221 167 -118 363 -198 642 -261 72 -17
404 -14 480 4 130 30 265 88 373 159 86 57 216 191 244 251 13 28 32 62 42 77
11 14 19 32 19 40 0 8 18 39 41 69 37 49 119 204 119 225 0 4 -23 -30 -52 -76
-69 -113 -149 -221 -222 -299 -65 -70 -65 -68 -8 69 60 147 76 216 70 312 -9
138 -50 204 -140 228 -62 17 -133 14 -285 -13 -76 -14 -155 -27 -176 -30 l-38
-6 31 36 c32 36 50 72 50 100 0 9 -9 2 -22 -17 -31 -45 -77 -67 -155 -76 -62
-6 -67 -5 -109 25 -24 17 -44 28 -44 25 0 -4 16 -28 35 -54 l36 -49 -298 -3
c-291 -3 -299 -4 -346 -27 -101 -50 -137 -121 -137 -269 0 -103 24 -179 106
-340 35 -70 64 -130 64 -134 0 -12 -48 2 -115 34 -54 26 -163 104 -271 196
-132 110 -168 147 -235 231 -41 52 -85 106 -99 121 -110 118 -124 166 -174
585 -9 72 -25 168 -37 214 l-21 84 27 136 c15 75 42 199 61 276 19 77 46 216
59 310 30 203 38 233 77 308 68 127 215 231 410 288 69 21 102 22 608 30 294
4 567 13 605 18 93 14 193 14 274 0 55 -9 79 -21 144 -67 96 -69 137 -118 188
-226 60 -128 129 -433 129 -569 l0 -44 -227 -6 c-375 -11 -494 -44 -544 -152
l-14 -30 -145 -7 c-80 -3 -169 -8 -199 -10 -54 -3 -55 -3 -84 41 -36 53 -84
76 -190 90 -196 27 -633 0 -797 -49 -36 -11 -90 -26 -120 -33 l-55 -12 0 -59
c1 -33 5 -61 11 -63 36 -12 43 -30 53 -148 21 -219 50 -314 108 -348 66 -38
302 -47 601 -22 356 30 407 64 434 292 8 70 8 118 1 168 -6 39 -8 73 -4 77 6
7 257 28 334 28 l47 0 0 -59 c0 -77 25 -216 50 -285 24 -62 68 -107 127 -127
50 -18 409 -18 553 0 58 8 112 15 120 16 51 6 122 39 141 67 29 41 38 181 15
239 -9 22 -16 65 -16 95 0 47 5 62 30 94 23 29 30 48 30 83 0 53 -11 64 -79
77 -97 18 -91 4 -91 226 0 130 4 203 12 217 28 53 42 145 41 277 0 74 -4 156
-8 181 -7 46 -6 47 27 58 103 36 159 117 165 241 3 71 -13 160 -29 160 -4 0
-12 -17 -18 -37 -5 -21 -13 -43 -17 -49 -15 -20 -58 -44 -79 -44 -29 0 -98 68
-173 171 -33 46 -86 120 -118 163 -126 174 -279 308 -450 395 -190 95 -437
131 -668 95z m1305 -2082 c22 -10 20 -11 -16 -6 -23 4 -44 2 -47 -2 -2 -5 -1
-68 3 -140 8 -117 11 -135 34 -169 23 -34 26 -47 26 -131 0 -52 3 -94 8 -94 4
0 23 4 42 10 30 8 33 8 17 -4 -26 -20 -128 -43 -252 -57 -149 -17 -439 -18
-486 -1 -40 14 -83 55 -94 90 -6 22 -5 23 31 16 30 -5 35 -4 28 7 -4 8 6 2 24
-13 76 -64 190 -38 238 54 17 33 18 111 2 141 -11 21 -10 21 8 7 58 -46 71
-92 50 -166 -13 -41 -13 -46 -1 -30 8 10 19 40 24 67 17 78 -3 144 -63 208
-30 33 -30 33 -6 26 57 -16 128 -64 192 -127 37 -38 70 -68 74 -68 16 0 -9 65
-45 118 -128 190 -407 216 -560 54 l-44 -47 5 70 c7 87 22 120 63 139 44 21
146 44 246 55 113 13 467 8 499 -7z m-1495 -54 c39 -5 89 -18 111 -28 63 -27
79 -82 79 -275 0 -171 -9 -209 -60 -254 -65 -57 -300 -86 -641 -79 -227 5
-254 10 -280 60 -15 29 -39 168 -50 292 -7 84 13 176 47 212 33 35 157 58 414
77 93 7 315 4 380 -5z m860 -208 c27 -29 10 -74 -28 -78 -54 -6 -75 40 -37 78
25 25 42 25 65 0z m-135 -9 c-5 -11 -14 -37 -19 -58 l-9 -38 -1 33 c-1 18 6
44 15 57 19 30 29 33 14 6z m230 -865 c0 -13 -149 -59 -276 -86 -249 -52 -537
-54 -745 -3 -98 23 -64 32 81 22 63 -5 210 -10 325 -11 201 -2 216 0 360 30
83 17 164 36 180 41 31 10 75 14 75 7z m74 -15 c22 -24 53 -114 62 -178 5 -39
1 -67 -14 -115 -29 -88 -175 -368 -209 -400 -33 -31 -118 -61 -150 -53 -34 8
-45 40 -44 124 0 42 -3 83 -8 91 -8 12 -31 12 -170 2 -88 -7 -172 -17 -186
-24 -24 -11 -25 -15 -24 -89 2 -104 -18 -141 -80 -150 -55 -7 -146 5 -176 25
-13 8 -48 53 -78 98 -30 46 -80 117 -111 158 -78 104 -100 165 -92 255 6 73
23 132 45 158 11 14 17 8 44 -46 32 -61 117 -142 125 -118 3 8 71 11 222 11
230 0 374 10 503 36 92 17 113 10 103 -38 l-6 -28 28 17 c65 40 122 107 152
179 16 40 30 80 30 88 0 21 13 20 34 -3z m-664 -143 c118 1 251 3 295 5 66 2
80 -1 80 -13 0 -48 -456 -89 -677 -61 -66 8 -69 10 -62 37 7 25 65 44 114 36
19 -3 132 -4 250 -4z"/>
<path d="M3485 1655 c4 -38 11 -77 15 -84 4 -8 6 16 3 55 -3 38 -10 76 -15 84
-6 9 -7 -11 -3 -55z"/>
<path d="M1651 1920 c-145 -39 -244 -119 -311 -250 -39 -76 -16 -73 65 8 66
67 75 73 68 47 -21 -81 5 -205 43 -205 8 0 12 5 9 11 -4 6 -4 26 0 46 l7 36
23 -39 c44 -74 130 -100 205 -62 62 32 90 77 90 147 l1 56 24 -28 c30 -33 34
-100 10 -150 l-16 -32 20 23 c11 12 24 45 30 72 20 95 -19 191 -99 240 -51 32
-50 43 3 35 121 -20 202 -88 253 -214 l24 -56 -1 50 c0 108 -53 186 -162 240
-94 47 -179 54 -286 25z m-21 -150 c24 -24 25 -47 3 -72 -20 -22 -42 -23 -71
-2 -28 19 -28 41 0 71 26 28 42 29 68 3z"/>
<path d="M1217 1683 c-10 -9 -9 -41 1 -47 5 -3 16 8 26 25 16 28 16 29 -2 29
-10 0 -22 -3 -25 -7z"/>
<path d="M2580 604 c-52 -8 -150 -15 -217 -17 -68 -1 -118 -6 -113 -11 4 -4
66 -10 137 -13 132 -5 228 8 303 40 31 14 32 15 10 15 -14 0 -68 -7 -120 -14z"/>
<path d="M2925 2355 c-71 -16 -143 -41 -162 -56 -7 -6 -13 -22 -13 -35 0 -40
25 -43 119 -13 158 50 267 47 384 -12 70 -35 77 -36 77 -4 0 18 -13 34 -47 60
-93 68 -223 90 -358 60z"/>
<path d="M1601 2310 c-106 -22 -253 -86 -299 -130 -18 -17 -21 -25 -11 -36 17
-20 27 -18 112 21 42 19 106 42 144 52 97 23 278 23 369 0 82 -21 122 -20 138
6 19 29 -5 51 -80 70 -79 22 -303 31 -373 17z"/>
<path d="M671 1528 c1 -15 79 -85 79 -71 0 15 -39 62 -61 73 -14 8 -19 7 -18
-2z"/>
</g>
</svg>
