<svg data-v-423bf9ae="" xmlns="http://www.w3.org/2000/svg" viewBox="0 0 851 91" class="iconLeft"><!----><!----><!----><g data-v-423bf9ae="" id="9cac77c0-687b-469c-b246-7be49a4839ab" fill="white" transform="matrix(5.423728942871094,0,0,5.423728942871094,105.90629577636719,-1.4915624856948853)"><path d="M12.42 3.78L10.18 12.53L7.53 3.78L6.50 3.78L3.75 12.45L1.46 3.78L0.31 3.78L3.21 14L4.26 14L7.03 5.26L9.65 14L10.72 14L13.50 3.78ZM17.81 6.58C16.09 6.58 14.87 7.56 14.77 9.02L15.76 9.02C15.82 8.18 16.62 7.49 17.77 7.49C19.05 7.49 19.81 8.16 19.81 9.67L19.81 9.94L17.54 9.93C15.62 9.93 14.48 10.79 14.48 12.01C14.48 13.27 15.53 14.14 16.87 14.14C18.16 14.14 19.18 13.55 19.94 12.96L20.15 14L20.83 14L20.83 9.67C20.83 7.70 19.74 6.58 17.81 6.58ZM15.51 12.00C15.51 11.19 16.23 10.79 17.56 10.79L19.81 10.79L19.81 12.11C19.05 12.70 18.10 13.22 17.08 13.22C16.23 13.22 15.51 12.78 15.51 12.00ZM22.32 7.62L23.45 7.62L23.45 12.00C23.45 13.57 24.32 14.14 25.44 14.14C26.18 14.14 26.88 13.99 27.45 13.73L27.34 12.84C26.82 13.06 26.24 13.22 25.59 13.22C24.91 13.22 24.49 12.85 24.49 11.98L24.49 7.62L27.41 7.62L27.41 6.72L24.49 6.72L24.49 4.65L23.48 4.91L23.48 6.72L22.32 6.72ZM34.47 9.30L35.48 9.30C35.36 7.94 34.05 6.58 32.12 6.58C29.96 6.58 28.39 8.20 28.39 10.33C28.39 12.47 29.96 14.14 32.14 14.14C33.88 14.14 35.29 13.03 35.45 11.54L34.44 11.54C34.26 12.57 33.32 13.23 32.12 13.23C30.66 13.23 29.46 12.07 29.46 10.36C29.46 8.69 30.62 7.49 32.14 7.49C33.46 7.49 34.37 8.44 34.47 9.30ZM41.47 6.58C40.39 6.58 39.38 6.99 38.29 7.74L38.29 3.08L37.30 3.08L37.30 14L38.33 14L38.33 8.65C39.33 7.98 40.38 7.50 41.26 7.50C42.32 7.50 42.95 8.12 42.95 9.30L42.95 14L43.99 14L43.99 9.25C43.99 7.50 43.05 6.58 41.47 6.58ZM56.99 3.78L49.10 3.78L49.10 4.79L52.46 4.79L52.46 14L53.59 14L53.59 4.79L56.99 4.79ZM62.58 6.58C61.50 6.58 60.49 6.99 59.40 7.74L59.40 3.08L58.41 3.08L58.41 14L59.44 14L59.44 8.65C60.44 7.98 61.49 7.50 62.37 7.50C63.43 7.50 64.06 8.12 64.06 9.30L64.06 14L65.10 14L65.10 9.25C65.10 7.50 64.16 6.58 62.58 6.58ZM68.04 5.10C68.47 5.10 68.84 4.73 68.84 4.27C68.84 3.85 68.47 3.50 68.04 3.50C67.59 3.50 67.24 3.85 67.24 4.27C67.24 4.73 67.59 5.10 68.04 5.10ZM68.53 6.72L67.48 6.72L67.48 14L68.53 14ZM70.70 8.54C70.70 11.48 75.66 10.02 75.67 12.05C75.68 12.88 74.87 13.29 73.70 13.29C72.48 13.29 71.50 12.75 71.30 11.69L70.31 11.69C70.53 13.34 72.02 14.14 73.67 14.14C75.39 14.14 76.69 13.40 76.69 12.05C76.69 9.14 71.72 10.57 71.72 8.54C71.72 7.94 72.32 7.43 73.60 7.43C75.00 7.43 75.49 8.13 75.59 8.99L76.55 8.99C76.47 7.70 75.56 6.58 73.63 6.58C71.69 6.58 70.70 7.43 70.70 8.54ZM93.56 3.78L91.32 12.53L88.68 3.78L87.64 3.78L84.90 12.45L82.60 3.78L81.45 3.78L84.35 14L85.40 14L88.17 5.26L90.79 14L91.87 14L94.64 3.78ZM96.81 5.10C97.24 5.10 97.61 4.73 97.61 4.27C97.61 3.85 97.24 3.50 96.81 3.50C96.36 3.50 96.01 3.85 96.01 4.27C96.01 4.73 96.36 5.10 96.81 5.10ZM97.30 6.72L96.25 6.72L96.25 14L97.30 14ZM98.90 7.62L100.03 7.62L100.03 12.00C100.03 13.57 100.90 14.14 102.02 14.14C102.76 14.14 103.46 13.99 104.03 13.73L103.92 12.84C103.40 13.06 102.82 13.22 102.17 13.22C101.49 13.22 101.07 12.85 101.07 11.98L101.07 7.62L103.99 7.62L103.99 6.72L101.07 6.72L101.07 4.65L100.06 4.91L100.06 6.72L98.90 6.72ZM109.68 6.58C108.60 6.58 107.59 6.99 106.50 7.74L106.50 3.08L105.50 3.08L105.50 14L106.54 14L106.54 8.65C107.53 7.98 108.58 7.50 109.47 7.50C110.53 7.50 111.16 8.12 111.16 9.30L111.16 14L112.20 14L112.20 9.25C112.20 7.50 111.26 6.58 109.68 6.58ZM127.19 3.78L123.37 9.63L119.56 3.78L118.59 3.78L118.59 14L119.60 14L119.60 5.57L123.09 10.82L123.70 10.82L127.15 5.52L127.15 14L128.16 14L128.16 3.78ZM133.95 6.58C131.91 6.58 130.33 8.19 130.33 10.33C130.33 12.50 131.87 14.14 133.97 14.14C135.63 14.14 136.89 13.06 137.13 11.76L136.14 11.76C135.93 12.66 135.07 13.23 133.97 13.23C132.52 13.23 131.46 12.15 131.35 10.63L137.17 10.63L137.27 10.54C137.45 8.41 135.97 6.58 133.95 6.58ZM131.39 9.74C131.64 8.39 132.71 7.48 133.94 7.48C135.23 7.48 136.12 8.48 136.26 9.76Z"></path></g><!----><g data-v-423bf9ae="" id="24c7b9f7-be07-4612-a8f5-2bd2a6df3600" transform="matrix(1.002256989479065,0,0,1.002256989479065,-0.7929707765579224,0.7968729734420776)" stroke="none" fill="white"><path d="M35.697 40.771V25.268l18.604 7.751zM72.483 81.645H17.516a8.457 8.457 0 0 0-8.457 8.457H80.94a8.458 8.458 0 0 0-8.457-8.457zM58.742 72.483c-4.857 0-8.809-3.951-8.809-8.811 0-4.856 3.951-8.809 8.809-8.809 4.856 0 8.809 3.952 8.809 8.809-.001 4.86-3.953 8.811-8.809 8.811zm0-14.8c-3.303 0-5.991 2.688-5.991 5.99s2.688 5.99 5.991 5.99c3.303 0 5.99-2.688 5.99-5.99s-2.688-5.99-5.99-5.99z"></path><path d="M51.342 83.054H31.257a4.587 4.587 0 0 1-4.58-4.581 4.584 4.584 0 0 1 4.58-4.58h20.084v2.819H31.257a1.763 1.763 0 0 0 0 3.523h20.084v2.819z"></path><path d="M67.55 83.054H51.342a1.41 1.41 0 0 1 0-2.819h13.39v-2.818c0-2.719-2.688-4.933-5.99-4.933-3.657 0-5.991 1.85-5.991 2.818a1.41 1.41 0 0 1-2.818 0c0-3.057 4.033-5.639 8.809-5.639 4.856 0 8.809 3.479 8.809 7.753v5.638zM78.825 66.14H64.417l.222-1.603c.056-.391.093-.622.093-.864a5.997 5.997 0 0 0-5.99-5.99 5.998 5.998 0 0 0-5.991 5.99c0 .266.043.519.081.774l.241 1.615-1.623.078h-5.028l-.411-.401c-2.255-2.208-6.113-2.207-8.365-.001l-.41.402H11.174c-5.44 0-9.866-4.426-9.866-9.865V9.764c0-5.44 4.425-9.865 9.866-9.865h67.651c5.44 0 9.867 4.425 9.867 9.865v46.511c0 5.439-4.426 9.865-9.867 9.865zm-11.282-2.82h11.282c3.887 0 7.048-3.16 7.048-7.046V9.764c0-3.886-3.162-7.047-7.048-7.047H11.174c-3.886 0-7.048 3.162-7.048 7.047v46.511c0 3.886 3.162 7.046 7.048 7.046h24.939c3.185-2.732 8.24-2.734 11.431 0h2.396c.186-4.693 4.063-8.456 8.802-8.456 4.739-.001 8.615 3.762 8.801 8.455z"></path><path d="M47.572 76.712H36.085l-.411-.403a8.742 8.742 0 0 1-2.655-6.291c0-4.859 3.952-8.811 8.809-8.811 4.857 0 8.809 3.951 8.809 8.811a8.733 8.733 0 0 1-2.654 6.291l-.411.403zm-10.301-2.819h9.116a5.926 5.926 0 0 0 1.432-3.875 5.997 5.997 0 0 0-5.991-5.992 5.997 5.997 0 0 0-5.99 5.992c0 1.433.505 2.789 1.433 3.875z"></path></g><!----></svg>