<svg xmlns="http://www.w3.org/2000/svg" xmlns:xlink="http://www.w3.org/1999/xlink" width="32" height="32" version="1.1" viewBox="0 0 32 32"><g id="surface1"><path style="stroke:none;fill-rule:nonzero;fill:#000;fill-opacity:1" d="M 4.5 12.5 L 9.5 12.5 L 9.5 4.5 L 4.5 4.5 Z M 5.5 5.5 L 8.5 5.5 L 8.5 11.5 L 5.5 11.5 Z M 5.5 5.5"/><path style="stroke:none;fill-rule:nonzero;fill:#000;fill-opacity:1" d="M 4.5 27.5 L 9.5 27.5 L 9.5 16.5 L 4.5 16.5 Z M 5.5 17.5 L 8.5 17.5 L 8.5 26.5 L 5.5 26.5 Z M 5.5 17.5"/><path style="stroke:none;fill-rule:nonzero;fill:#000;fill-opacity:1" d="M 13.5 16.5 L 18.5 16.5 L 18.5 4.5 L 13.5 4.5 Z M 14.5 5.5 L 17.5 5.5 L 17.5 15.5 L 14.5 15.5 Z M 14.5 5.5"/><path style="stroke:none;fill-rule:nonzero;fill:#000;fill-opacity:1" d="M 13.5 27.5 L 18.5 27.5 L 18.5 20.5 L 13.5 20.5 Z M 14.5 21.5 L 17.5 21.5 L 17.5 26.5 L 14.5 26.5 Z M 14.5 21.5"/><path style="stroke:none;fill-rule:nonzero;fill:#000;fill-opacity:1" d="M 22.5 4.5 L 22.5 10.5 L 27.5 10.5 L 27.5 4.5 Z M 26.5 9.5 L 23.5 9.5 L 23.5 5.5 L 26.5 5.5 Z M 26.5 9.5"/><path style="stroke:none;fill-rule:nonzero;fill:#000;fill-opacity:1" d="M 22.5 19.5 L 27.5 19.5 L 27.5 14.5 L 22.5 14.5 Z M 23.5 15.5 L 26.5 15.5 L 26.5 18.5 L 23.5 18.5 Z M 23.5 15.5"/><path style="stroke:none;fill-rule:nonzero;fill:#000;fill-opacity:1" d="M 22.5 27.5 L 27.5 27.5 L 27.5 23.5 L 22.5 23.5 Z M 23.5 24.5 L 26.5 24.5 L 26.5 26.5 L 23.5 26.5 Z M 23.5 24.5"/></g></svg>