<?xml version="1.0" encoding="UTF-8"?>
<svg xmlns="http://www.w3.org/2000/svg" xmlns:xlink="http://www.w3.org/1999/xlink" width="16px" height="16px" viewBox="0 0 16 16" version="1.1">
<g id="surface1">
<path style=" stroke:none;fill-rule:nonzero;fill:rgb(0%,0%,0%);fill-opacity:1;" d="M 2.25 6.25 L 4.75 6.25 L 4.75 2.25 L 2.25 2.25 Z M 2.75 2.75 L 4.25 2.75 L 4.25 5.75 L 2.75 5.75 Z M 2.75 2.75 "/>
<path style=" stroke:none;fill-rule:nonzero;fill:rgb(0%,0%,0%);fill-opacity:1;" d="M 2.25 13.75 L 4.75 13.75 L 4.75 8.25 L 2.25 8.25 Z M 2.75 8.75 L 4.25 8.75 L 4.25 13.25 L 2.75 13.25 Z M 2.75 8.75 "/>
<path style=" stroke:none;fill-rule:nonzero;fill:rgb(0%,0%,0%);fill-opacity:1;" d="M 6.75 8.25 L 9.25 8.25 L 9.25 2.25 L 6.75 2.25 Z M 7.25 2.75 L 8.75 2.75 L 8.75 7.75 L 7.25 7.75 Z M 7.25 2.75 "/>
<path style=" stroke:none;fill-rule:nonzero;fill:rgb(0%,0%,0%);fill-opacity:1;" d="M 6.75 13.75 L 9.25 13.75 L 9.25 10.25 L 6.75 10.25 Z M 7.25 10.75 L 8.75 10.75 L 8.75 13.25 L 7.25 13.25 Z M 7.25 10.75 "/>
<path style=" stroke:none;fill-rule:nonzero;fill:rgb(0%,0%,0%);fill-opacity:1;" d="M 11.25 2.25 L 11.25 5.25 L 13.75 5.25 L 13.75 2.25 Z M 13.25 4.75 L 11.75 4.75 L 11.75 2.75 L 13.25 2.75 Z M 13.25 4.75 "/>
<path style=" stroke:none;fill-rule:nonzero;fill:rgb(0%,0%,0%);fill-opacity:1;" d="M 11.25 9.75 L 13.75 9.75 L 13.75 7.25 L 11.25 7.25 Z M 11.75 7.75 L 13.25 7.75 L 13.25 9.25 L 11.75 9.25 Z M 11.75 7.75 "/>
<path style=" stroke:none;fill-rule:nonzero;fill:rgb(0%,0%,0%);fill-opacity:1;" d="M 11.25 13.75 L 13.75 13.75 L 13.75 11.75 L 11.25 11.75 Z M 11.75 12.25 L 13.25 12.25 L 13.25 13.25 L 11.75 13.25 Z M 11.75 12.25 "/>
</g>
</svg>
